<svg xmlns="http://www.w3.org/2000/svg" shape-rendering="geometricPrecision" text-rendering="geometricPrecision" image-rendering="optimizeQuality" fill-rule="evenodd" clip-rule="evenodd" viewBox="0 0 512 512"><path fill-rule="nonzero" d="M256.003 0c70.681 0 134.688 28.657 181.01 74.986C483.343 121.315 512 185.315 512 256.003c0 70.681-28.657 134.688-74.987 181.01C390.691 483.343 326.684 512 256.003 512c-70.688 0-134.694-28.657-181.017-74.987C28.657 390.691 0 326.69 0 256.003c0-70.688 28.657-134.688 74.986-181.017C121.309 28.657 185.315 0 256.003 0zm-49.896 348.69h30.414l63.482-185.381h-30.657l-43.614 137.838c-.369 1.434-.822 3.191-1.31 5.192a191.303 191.303 0 00-1.387 6.377c-.411 2.167-.864 4.376-1.227 6.585a111.148 111.148 0 00-.982 6.049h-.697c-.083-1.756-.327-3.763-.732-6.007-.411-2.21-.863-4.46-1.393-6.705a131.076 131.076 0 00-1.596-6.543 204.478 204.478 0 01-1.429-5.437l-43.001-137.349h-30.169l64.298 185.381zm148.144-161.183h15.939v-24.198h-60.13v24.198h16.272v136.861H310.06v24.322h60.13v-24.322h-15.939V187.507zm66.055-95.814c-42.042-42.048-100.142-68.055-164.303-68.055-64.168 0-122.268 26.007-164.31 68.055-42.042 42.042-68.055 100.142-68.055 164.31 0 64.167 26.007 122.261 68.055 164.303 42.042 42.048 100.142 68.056 164.31 68.056 64.161 0 122.261-26.008 164.303-68.056 42.048-42.042 68.056-100.142 68.056-164.303 0-64.168-26.014-122.268-68.056-164.31z"/></svg>